<?xml version="1.0" encoding="UTF-8"?>
<svg id="Camada_2" data-name="Camada 2" xmlns="http://www.w3.org/2000/svg" viewBox="0 0 611.68 699.37">
  <defs>
    <style>
      .cls-1 {
        fill: #0097eb;
      }

      .cls-2 {
        fill: #b1def7;
      }
    </style>
  </defs>
  <g id="Camada_1-2" data-name="Camada 1">
    <g>
      <path class="cls-2" d="M.98,331.34c-6.13-34.76,17.15-68.01,51.91-74.14l315.14-55.57c34.76-6.13,68.01,17.15,74.14,51.91l55.57,315.14c6.13,34.76-17.15,68.01-51.91,74.14l-315.14,55.57c-34.76,6.13-68.01-17.15-74.14-51.91L.98,331.34Z"/>
      <path class="cls-1" d="M187.9,71.73l5.67,31.49-47.24,8.51c-26.08,4.7-43.43,29.67-38.73,55.75l8.51,47.24,440.9-79.43-8.51-47.24c-4.7-26.08-29.67-43.43-55.75-38.73l-47.24,8.51-5.67-31.49c-3.14-17.42-19.75-28.96-37.17-25.82-17.42,3.14-28.96,19.75-25.82,37.17l5.67,31.49-125.97,22.7-5.67-31.49c-3.14-17.42-19.75-28.96-37.17-25.82s-28.96,19.75-25.82,37.17ZM562.69,166.78L121.79,246.21l48.23,267.69c4.7,26.08,29.67,43.43,55.75,38.73l346.42-62.41c26.08-4.7,43.43-29.67,38.73-55.75l-48.23-267.69Z"/>
    </g>
  </g>
</svg>