<?xml version="1.0" encoding="UTF-8"?>
<svg id="Camada_2" data-name="Camada 2" xmlns="http://www.w3.org/2000/svg" viewBox="0 0 556.64 637.22">
  <defs>
    <style>
      .cls-1 {
        fill: #c1d3fc;
      }

      .cls-2 {
        fill: #3874ff;
      }
    </style>
  </defs>
  <g id="Camada_1-2" data-name="Camada 1">
    <g>
      <path class="cls-1" d="M.98,269.19c-6.13-34.76,17.15-68.01,51.91-74.14l315.14-55.57c34.76-6.13,68.01,17.15,74.14,51.91l55.57,315.14c6.13,34.76-17.15,68.01-51.91,74.14l-315.14,55.57c-34.76,6.13-68.01-17.15-74.14-51.91L.98,269.19Z"/>
      <g>
        <path class="cls-2" d="M331.43,26.42l-90.74,15.85C123.76,62.7,45.53,174.05,65.95,290.99c20.43,116.93,131.78,195.16,248.71,174.74l90.74-15.85-26.42-151.23-90.74,15.85c-33.41,5.84-65.22-16.52-71.06-49.92s16.51-65.22,49.92-71.06l90.74-15.85-26.42-151.23Z"/>
        <path class="cls-2" d="M391.92,15.85l26.42,151.23,90.74-15.85L482.66,0l-90.74,15.85Z"/>
        <path class="cls-2" d="M439.48,288.07l26.42,151.23,90.74-15.85-26.42-151.23-90.74,15.85Z"/>
      </g>
    </g>
  </g>
</svg>